<?xml version="1.0" encoding="UTF-8" standalone="no"?>
<svg
   xmlns:dc="http://purl.org/dc/elements/1.1/"
   xmlns:cc="http://creativecommons.org/ns#"
   xmlns:rdf="http://www.w3.org/1999/02/22-rdf-syntax-ns#"
   xmlns:svg="http://www.w3.org/2000/svg"
   xmlns="http://www.w3.org/2000/svg"
   xmlns:sodipodi="http://sodipodi.sourceforge.net/DTD/sodipodi-0.dtd"
   xmlns:inkscape="http://www.inkscape.org/namespaces/inkscape"
   version="1.1"
   id="svg602"
   xml:space="preserve"
   width="480"
   height="480"
   viewBox="0 0 480 480"
   sodipodi:docname="logo.svg"
   inkscape:export-filename="/Users/ashishg/Desktop/logo.png"
   inkscape:export-xdpi="96"
   inkscape:export-ydpi="96"
   inkscape:version="1.0.1 (c497b03c, 2020-09-10)"><metadata
     id="metadata608"><rdf:RDF><cc:Work
         rdf:about=""><dc:format>image/svg+xml</dc:format><dc:type
           rdf:resource="http://purl.org/dc/dcmitype/StillImage" /><dc:title></dc:title></cc:Work></rdf:RDF></metadata><defs
     id="defs606"><clipPath
       clipPathUnits="userSpaceOnUse"
       id="clipPath618"><path
         d="M 0,360 H 360 V 0 H 0 Z"
         id="path616" /></clipPath></defs><sodipodi:namedview
     pagecolor="#ffffff"
     bordercolor="#666666"
     borderopacity="1"
     objecttolerance="10"
     gridtolerance="10"
     guidetolerance="10"
     inkscape:pageopacity="0"
     inkscape:pageshadow="2"
     inkscape:window-width="1792"
     inkscape:window-height="1120"
     id="namedview604"
     showgrid="false"
     inkscape:zoom="1"
     inkscape:cx="29.722545"
     inkscape:cy="281.49245"
     inkscape:window-x="0"
     inkscape:window-y="0"
     inkscape:window-maximized="0"
     inkscape:current-layer="g610" /><g
     id="g610"
     inkscape:groupmode="layer"
     inkscape:label="Final Logo_Rajendra Gandhi consulting 2"
     transform="matrix(1.3333333,0,0,-1.3333333,0,480)"><g
       id="g1088"
       transform="matrix(3,0,0,3,-355.41418,-416.13977)"
       inkscape:export-xdpi="96"
       inkscape:export-ydpi="96"><g
         id="g620"
         transform="translate(161.1987,245.3179)"><path
           d="m 0,0 v 5.339 h -14.783 c 0,-1.101 -0.005,-2.031 10e-4,-2.96 0.073,-11.55 0.151,-23.101 0.219,-34.65 0.043,-7.091 0.129,-19.372 0.129,-19.372 H 0.464 c 0,0 -0.269,15.227 -0.295,23.79 -0.017,5.864 2.343,10.744 6.91,14.398 6.089,4.874 12.795,5.46 19.895,2.411 0.971,-0.417 1.97,-1.352 2.854,0.18 2.148,3.723 4.324,7.43 6.726,11.553 C 24.134,7.383 12.162,7.228 0,0"
           style="fill:#faaf40;fill-opacity:1;fill-rule:nonzero;stroke:none"
           id="path622" /></g><g
         id="g1081"><g
           id="g624"
           transform="translate(213.7227,216.5859)"><path
             d="m 0,0 c -0.083,3.82 -0.749,7.731 -1.827,11.401 -1.902,6.48 -5.738,11.777 -11.41,16.108 -2.462,-4.18 -4.809,-8.073 -7.016,-12.043 -0.237,-0.427 0.149,-1.467 0.566,-1.946 2.498,-2.874 4.011,-6.167 4.695,-9.898 1.437,-7.845 -3.096,-16.441 -10.613,-20.032 -7.455,-3.56 -16.31,-1.698 -21.589,4.531 -0.459,0.542 -0.974,1.035 -1.731,1.834 0,-5.883 -0.079,-11.307 0.083,-16.723 0.025,-0.836 0.982,-1.963 1.804,-2.409 8.77,-4.765 17.773,-4.666 26.856,-0.951 1.807,0.738 3.516,1.713 5.536,2.71 0,-3.659 0.289,-7.103 -0.058,-10.481 -0.807,-7.855 -5.112,-13.319 -12.567,-15.784 -7.332,-2.423 -14.139,-1.177 -19.716,4.557 -3.382,3.478 -5.055,7.718 -5.117,12.883 h -0.069 v 0.01 l -0.213,8.55 h -14.398 l 0.093,-12.344 c 0.213,-3.71 0.813,-7.351 2.529,-10.782 6.988,-13.966 22.785,-21.245 38.516,-17.692 15.133,3.419 25.781,16.791 25.824,32.577 C 0.21,-23.949 0.26,-11.97 0,0"
             style="fill:#1e5377;fill-opacity:1;fill-rule:nonzero;stroke:none"
             id="path626" /></g></g></g></g></svg>
